# xmcd
#
# Track frame offsets:
#	150
#	19045
#	39955
#	56395
#	72602
#	87542
#	106535
#	121697
#	135705
#	153755
#	171507
#	190702
#
# Disc length: 2749 seconds
#
# Revision: 0
# Processed by: cddbd v1.5.1PL2 Copyright (c) Steve Scherf et al.
# Submitted via: audiograbber 1.83.01
#
DISCID=930abb0c
DTITLE=Alabama - Twentieth Century
DYEAR=1999
DGENRE=Country
TTITLE0=Twentieth Century
TTITLE1=God Must Have Spent A Little More Time On You
TTITLE2=I'm In That Kind Of Mood
TTITLE3=We Made Love
TTITLE4=Life's Too Short To Love This Fast
TTITLE5=Then We Remember
TTITLE6=Little Things
TTITLE7=Mist Of Desire
TTITLE8=Small Stuff
TTITLE9=Too Much Love
TTITLE10=Write It Down In Blue
TTITLE11=I Love You Enough To Let You Go
EXTD=
EXTT0=
EXTT1=
EXTT2=
EXTT3=
EXTT4=
EXTT5=
EXTT6=
EXTT7=
EXTT8=
EXTT9=
EXTT10=
EXTT11=
PLAYORDER=
